<?xml version="1.0" encoding="UTF-8"?>
<svg width="171px" height="65px" viewBox="0 0 171 65" version="1.1" xmlns="http://www.w3.org/2000/svg" xmlns:xlink="http://www.w3.org/1999/xlink">
    <title>pista</title>
    <g id="Page-1" stroke="none" stroke-width="1" fill="none" fill-rule="evenodd">
        <path d="M11.58,64.36 L11.58,46 C14.14,48.64 17.34,49.96 21.18,49.96 C23.38,49.96 25.42,49.54 27.3,48.7 C29.18,47.86 30.81,46.7 32.19,45.22 C33.57,43.74 34.65,42.02 35.43,40.06 C36.21,38.1 36.6,35.98 36.6,33.7 C36.6,31.42 36.21,29.28 35.43,27.28 C34.65,25.28 33.56,23.54 32.16,22.06 C30.76,20.58 29.11,19.41 27.21,18.55 C25.31,17.69 23.26,17.26 21.06,17.26 C17.06,17.26 13.9,18.72 11.58,21.64 L11.58,21.64 L11.58,18.22 L0.72,18.22 L0.72,64.36 L11.58,64.36 Z M18.3,40.6 C17.34,40.6 16.43,40.41 15.57,40.03 C14.71,39.65 13.96,39.15 13.32,38.53 C12.68,37.91 12.18,37.18 11.82,36.34 C11.46,35.5 11.28,34.6 11.28,33.64 C11.28,32.68 11.47,31.77 11.85,30.91 C12.23,30.05 12.73,29.3 13.35,28.66 C13.97,28.02 14.7,27.52 15.54,27.16 C16.38,26.8 17.28,26.62 18.24,26.62 C19.24,26.62 20.17,26.81 21.03,27.19 C21.89,27.57 22.64,28.08 23.28,28.72 C23.92,29.36 24.41,30.11 24.75,30.97 C25.09,31.83 25.26,32.74 25.26,33.7 C25.26,34.62 25.07,35.5 24.69,36.34 C24.31,37.18 23.81,37.92 23.19,38.56 C22.57,39.2 21.84,39.7 21,40.06 C20.16,40.42 19.26,40.6 18.3,40.6 Z M48.18,12.52 C49.02,12.52 49.81,12.36 50.55,12.04 C51.29,11.72 51.94,11.28 52.5,10.72 C53.06,10.16 53.5,9.51 53.82,8.77 C54.14,8.03 54.3,7.24 54.3,6.4 C54.3,5.56 54.14,4.77 53.82,4.03 C53.5,3.29 53.06,2.64 52.5,2.08 C51.94,1.52 51.29,1.08 50.55,0.76 C49.81,0.44 49.02,0.28 48.18,0.28 C47.34,0.28 46.55,0.44 45.81,0.76 C45.07,1.08 44.42,1.52 43.86,2.08 C43.3,2.64 42.86,3.29 42.54,4.03 C42.22,4.77 42.06,5.56 42.06,6.4 C42.06,7.24 42.22,8.03 42.54,8.77 C42.86,9.51 43.3,10.16 43.86,10.72 C44.42,11.28 45.07,11.72 45.81,12.04 C46.55,12.36 47.34,12.52 48.18,12.52 Z M53.64,49 L53.64,18.22 L42.78,18.22 L42.78,49 L53.64,49 Z M71.46,50.14 C73.62,50.14 75.6,49.87 77.4,49.33 C79.2,48.79 80.74,48.03 82.02,47.05 C83.3,46.07 84.3,44.86 85.02,43.42 C85.74,41.98 86.1,40.36 86.1,38.56 C86.1,36.16 85.36,34.19 83.88,32.65 C82.4,31.11 80.16,30.04 77.16,29.44 C76.08,29.2 75.21,29 74.55,28.84 C73.89,28.68 73.39,28.5 73.05,28.3 C72.71,28.1 72.49,27.89 72.39,27.67 C72.29,27.45 72.24,27.16 72.24,26.8 C72.24,26.12 72.55,25.58 73.17,25.18 C73.79,24.78 74.6,24.58 75.6,24.58 C77.52,24.58 79.48,25.1 81.48,26.14 L81.48,26.14 L85.14,19.06 C81.94,17.74 78.64,17.08 75.24,17.08 C73.16,17.08 71.27,17.34 69.57,17.86 C67.87,18.38 66.42,19.12 65.22,20.08 C64.02,21.04 63.1,22.21 62.46,23.59 C61.82,24.97 61.5,26.52 61.5,28.24 C61.5,30.6 62.17,32.45 63.51,33.79 C64.85,35.13 67.2,36.14 70.56,36.82 C71.56,37.02 72.37,37.21 72.99,37.39 C73.61,37.57 74.08,37.77 74.4,37.99 C74.72,38.21 74.93,38.45 75.03,38.71 C75.13,38.97 75.18,39.3 75.18,39.7 C75.18,40.38 74.86,40.94 74.22,41.38 C73.58,41.82 72.76,42.04 71.76,42.04 C69.04,42.04 66.16,41 63.12,38.92 L63.12,38.92 L59.16,46.6 C63.2,48.96 67.3,50.14 71.46,50.14 Z M104.58,49 L104.58,27.28 L110.76,27.28 L110.76,18.22 L104.58,18.22 L104.58,8.98 L93.72,8.98 L93.72,18.22 L90.12,18.22 L90.12,27.28 L93.72,27.28 L93.72,49 L104.58,49 Z M129.78,49.96 C133.74,49.96 136.88,48.5 139.2,45.58 L139.2,45.58 L139.2,49 L150.12,49 L150.12,18.22 L139.2,18.22 L139.2,21.28 C136.68,18.6 133.5,17.26 129.66,17.26 C127.38,17.26 125.3,17.69 123.42,18.55 C121.54,19.41 119.92,20.58 118.56,22.06 C117.2,23.54 116.14,25.27 115.38,27.25 C114.62,29.23 114.24,31.32 114.24,33.52 C114.24,35.88 114.63,38.06 115.41,40.06 C116.19,42.06 117.28,43.8 118.68,45.28 C120.08,46.76 121.72,47.91 123.6,48.73 C125.48,49.55 127.54,49.96 129.78,49.96 Z M132.54,40.6 C131.54,40.6 130.61,40.42 129.75,40.06 C128.89,39.7 128.15,39.2 127.53,38.56 C126.91,37.92 126.42,37.17 126.06,36.31 C125.7,35.45 125.52,34.52 125.52,33.52 C125.52,32.56 125.7,31.67 126.06,30.85 C126.42,30.03 126.91,29.3 127.53,28.66 C128.15,28.02 128.89,27.52 129.75,27.16 C130.61,26.8 131.54,26.62 132.54,26.62 C133.5,26.62 134.41,26.8 135.27,27.16 C136.13,27.52 136.87,28.02 137.49,28.66 C138.11,29.3 138.61,30.05 138.99,30.91 C139.37,31.77 139.56,32.68 139.56,33.64 C139.56,34.6 139.37,35.5 138.99,36.34 C138.61,37.18 138.11,37.92 137.49,38.56 C136.87,39.2 136.13,39.7 135.27,40.06 C134.41,40.42 133.5,40.6 132.54,40.6 Z M163.98,50.26 C164.94,50.26 165.85,50.08 166.71,49.72 C167.57,49.36 168.32,48.86 168.96,48.22 C169.6,47.58 170.1,46.83 170.46,45.97 C170.82,45.11 171,44.2 171,43.24 C171,42.28 170.82,41.37 170.46,40.51 C170.1,39.65 169.6,38.9 168.96,38.26 C168.32,37.62 167.57,37.12 166.71,36.76 C165.85,36.4 164.94,36.22 163.98,36.22 C163.02,36.22 162.11,36.4 161.25,36.76 C160.39,37.12 159.64,37.62 159,38.26 C158.36,38.9 157.86,39.65 157.5,40.51 C157.14,41.37 156.96,42.28 156.96,43.24 C156.96,44.2 157.14,45.11 157.5,45.97 C157.86,46.83 158.36,47.58 159,48.22 C159.64,48.86 160.39,49.36 161.25,49.72 C162.11,50.08 163.02,50.26 163.98,50.26 Z" id="pista." fill="#FEFFFA" fill-rule="nonzero"></path>
    </g>
</svg>