<?xml version="1.0" encoding="UTF-8"?>
<svg width="189px" height="41px" viewBox="0 0 189 41" version="1.1" xmlns="http://www.w3.org/2000/svg" xmlns:xlink="http://www.w3.org/1999/xlink">
    <title>Group</title>
    <g id="Page-1" stroke="none" stroke-width="1" fill="none" fill-rule="evenodd">
        <g id="Group" transform="translate(0.250000, 0.400000)" fill="#FEFFFA" fill-rule="nonzero">
            <path d="M17.9517887,39.3121449 L17.9517887,32.0405343 C15.6036645,32.0405343 14.1266186,31.7470188 13.520651,31.1599877 C12.9146835,30.5729567 12.6116997,29.1621884 12.6116997,26.9276831 L12.6116997,26.9276831 L12.6116997,17.8949793 L17.9517887,17.8949793 L17.9517887,10.9074159 L12.6116997,10.9074159 L12.6116997,0 L4.82880393,4.26070935 L4.82880393,10.9074159 L0,10.9074159 L0,17.8949793 L4.82880393,17.8949793 L4.82880393,26.9844926 C4.82880393,31.6049951 5.69988229,34.8147295 7.442039,36.6136957 C9.18419571,38.4126619 12.3087159,39.3121449 16.8155996,39.3121449 L16.8155996,39.3121449 L17.9517887,39.3121449 Z M34.6537694,39.8802395 C37.6836071,39.8802395 40.3252469,39.198526 42.5786888,37.835099 C44.8321306,36.471672 46.6026921,34.6348329 47.8903731,32.3245816 L47.8903731,32.3245816 L41.6981422,28.6319668 C41.0543017,29.9953938 40.1169456,31.0747735 38.886074,31.8701059 C37.6552024,32.6654384 36.2633707,33.0631046 34.7105788,33.0631046 C32.7033113,33.0631046 31.055837,32.5991607 29.768156,31.6712728 C28.4804749,30.743385 27.6093966,29.4841087 27.1549209,27.8934439 L27.1549209,27.8934439 L49.0833717,27.8934439 L49.0833717,25.052971 C49.0833717,20.8869441 47.7104765,17.3931624 44.964686,14.571626 C42.2188955,11.7500896 38.7061774,10.3393214 34.4265316,10.3393214 C30.3362506,10.3393214 26.8519372,11.7784943 23.9735913,14.6568402 C21.0952454,17.535186 19.6560725,21.0194995 19.6560725,25.1097804 C19.6560725,29.2758074 21.0668407,32.7790573 23.8883771,35.6195302 C26.7099135,38.4600031 30.2983776,39.8802395 34.6537694,39.8802395 Z M41.2436665,21.6444035 L27.4957777,21.6444035 C28.1017452,20.2809765 29.0201648,19.1921286 30.2510364,18.3778597 C31.481908,17.5635908 32.8926762,17.1564563 34.483341,17.1564563 C37.9676544,17.1564563 40.2210963,18.6524387 41.2436665,21.6444035 L41.2436665,21.6444035 Z M60.0475971,39.3121449 L60.0475971,23.8031629 C60.0475971,21.5307846 60.549414,19.8265008 61.5530478,18.6903117 C62.5566815,17.5541225 63.8538308,16.9860279 65.4444956,16.9860279 C67.1487794,16.9860279 68.4459287,17.5067813 69.3359435,18.548288 C70.2259583,19.5897948 70.6709658,21.0763089 70.6709658,23.0078305 L70.6709658,23.0078305 L70.6709658,39.3121449 L78.5674804,39.3121449 L78.5674804,21.9852602 C78.5674804,18.311582 77.6206561,15.4521726 75.7270075,13.4070321 C73.8333589,11.3618916 71.2011874,10.3393214 67.8304929,10.3393214 C64.5734173,10.3393214 61.9601822,11.5891294 59.9907877,14.0887456 L59.9907877,14.0887456 L59.9907877,10.9074159 L52.2647014,10.9074159 L52.2647014,39.3121449 L60.0475971,39.3121449 Z M95.38308,39.8802395 C98.9810123,39.8802395 101.840422,38.6304314 103.961308,36.1308153 L103.961308,36.1308153 L103.961308,39.3121449 L111.744204,39.3121449 L111.744204,10.9074159 L103.961308,10.9074159 L103.961308,13.6910794 C101.840422,11.456574 99.0188853,10.3393214 95.4966989,10.3393214 C93.2243206,10.3393214 91.0750294,10.8506065 89.0488254,11.8731767 C87.0226214,12.895747 85.289933,14.5621577 83.85076,16.872409 C82.4115871,19.1826603 81.6920006,21.9284508 81.6920006,25.1097804 C81.6920006,29.730283 83.1217053,33.3471519 85.9811147,35.9603869 C88.8405241,38.573622 91.9745125,39.8802395 95.38308,39.8802395 Z M96.9169354,32.7222478 C94.758176,32.7222478 92.9497415,31.9931931 91.4916321,30.5350837 C90.0335227,29.0769743 89.304468,27.2496034 89.304468,25.052971 C89.304468,22.8563386 90.0335227,21.0384359 91.4916321,19.599263 C92.9497415,18.1600901 94.758176,17.4405036 96.9169354,17.4405036 C98.9999488,17.4405036 100.732637,18.1790266 102.115001,19.6560725 C103.497364,21.1331184 104.188546,22.9320845 104.188546,25.052971 C104.188546,27.1738574 103.497364,28.9822918 102.115001,30.4782742 C100.732637,31.9742566 98.9999488,32.7222478 96.9169354,32.7222478 Z M129.582374,39.8802395 C132.763703,39.8802395 135.556835,39.0659706 137.961769,37.4374328 C140.366702,35.808895 142.137264,33.6311991 143.273453,30.9043452 L143.273453,30.9043452 L136.342699,27.9502533 C135.812478,29.3136803 134.931931,30.4119965 133.701059,31.2452019 C132.470188,32.0784073 131.116229,32.49501 129.639183,32.49501 C127.594043,32.49501 125.870822,31.7754235 124.469522,30.3362506 C123.068223,28.8970776 122.367573,27.1549209 122.367573,25.1097804 C122.367573,23.06464 123.068223,21.3224832 124.469522,19.8833103 C125.870822,18.4441374 127.594043,17.7245509 129.639183,17.7245509 C131.116229,17.7245509 132.470188,18.1411536 133.701059,18.974359 C134.931931,19.8075644 135.812478,20.9058805 136.342699,22.2693075 L136.342699,22.2693075 L143.273453,19.3152157 C142.137264,16.5883617 140.366702,14.4106658 137.961769,12.7821281 C135.556835,11.1535903 132.763703,10.3393214 129.582374,10.3393214 C125.492093,10.3393214 122.017248,11.7784943 119.157838,14.6568402 C116.298429,17.535186 114.868724,21.0194995 114.868724,25.1097804 C114.868724,29.2000614 116.298429,32.6843748 119.157838,35.5627207 C122.017248,38.4410666 125.492093,39.8802395 129.582374,39.8802395 Z M159.975434,39.8802395 C163.005272,39.8802395 165.646911,39.198526 167.900353,37.835099 C170.153795,36.471672 171.924356,34.6348329 173.212037,32.3245816 L173.212037,32.3245816 L167.019807,28.6319668 C166.375966,29.9953938 165.43861,31.0747735 164.207738,31.8701059 C162.976867,32.6654384 161.585035,33.0631046 160.032243,33.0631046 C158.024976,33.0631046 156.377501,32.5991607 155.08982,31.6712728 C153.802139,30.743385 152.931061,29.4841087 152.476585,27.8934439 L152.476585,27.8934439 L174.405036,27.8934439 L174.405036,25.052971 C174.405036,20.8869441 173.032141,17.3931624 170.28635,14.571626 C167.54056,11.7500896 164.027842,10.3393214 159.748196,10.3393214 C155.657915,10.3393214 152.173602,11.7784943 149.295256,14.6568402 C146.41691,17.535186 144.977737,21.0194995 144.977737,25.1097804 C144.977737,29.2758074 146.388505,32.7790573 149.210041,35.6195302 C152.031578,38.4600031 155.620042,39.8802395 159.975434,39.8802395 Z M166.565331,21.6444035 L152.817442,21.6444035 C153.42341,20.2809765 154.341829,19.1921286 155.572701,18.3778597 C156.803572,17.5635908 158.214341,17.1564563 159.805005,17.1564563 C163.289319,17.1564563 165.542761,18.6524387 166.565331,21.6444035 L166.565331,21.6444035 Z" id="tenace"></path>
            <path d="M182.420544,39.9484109 C184.064231,39.9484109 185.389785,39.4712114 186.397206,38.5168125 C187.404627,37.5624136 187.908337,36.3163929 187.908337,34.7787502 C187.908337,33.1880854 187.404627,31.9155535 186.397206,30.9611546 C185.389785,30.0067557 184.064231,29.5295563 182.420544,29.5295563 C180.829879,29.5295563 179.530836,30.0067557 178.523415,30.9611546 C177.515994,31.9155535 177.012283,33.1880854 177.012283,34.7787502 C177.012283,36.3163929 177.515994,37.5624136 178.523415,38.5168125 C179.530836,39.4712114 180.829879,39.9484109 182.420544,39.9484109 Z" id="."></path>
        </g>
    </g>
</svg>